<svg xmlns="http://www.w3.org/2000/svg" width="570" height="623" viewBox="0 0 570 623">
  <g fill="none">
    <g transform="translate(1 5)">
      <rect width="568" height="8.13" x=".5" y=".5" fill="#634C02"/>
      <path fill="#1E1E1E" d="M568,1 L568,8.13 L1,8.13 L1,1 L568,1 M569,0 L0,0 L0,9.13 L569,9.13 L569,0 Z"/>
      <g transform="translate(0 100)">
        <rect width="568" height="8.13" x=".5" y=".5" fill="#634C02"/>
        <path fill="#1E1E1E" d="M568,1 L568,8.13 L1,8.13 L1,1 L568,1 M569,0 L0,0 L0,9.13 L569,9.13 L569,0 Z"/>
      </g>
      <g transform="translate(0 342)">
        <rect width="568" height="8.13" x=".5" y=".5" fill="#634C02"/>
        <path fill="#1E1E1E" d="M568,1 L568,8.13 L1,8.13 L1,1 L568,1 M569,0 L0,0 L0,9.13 L569,9.13 L569,0 Z"/>
      </g>
      <g transform="translate(0 200)">
        <rect width="568" height="8.13" x=".5" y=".5" fill="#634C02"/>
        <path fill="#1E1E1E" d="M568,1 L568,8.13 L1,8.13 L1,1 L568,1 M569,0 L0,0 L0,9.13 L569,9.13 L569,0 Z"/>
      </g>
      <g transform="translate(0 544)">
        <rect width="568" height="8.13" x=".5" y=".5" fill="#634C02"/>
        <path fill="#1E1E1E" d="M568,1 L568,8.13 L1,8.13 L1,1 L568,1 M569,0 L0,0 L0,9.13 L569,9.13 L569,0 Z"/>
      </g>
    </g>
    <rect width="19" height="622" x=".5" y=".5" fill="#634C02"/>
    <path fill="#1E1E1E" d="M19,1 L19,622 L1,622 L1,1 L19,1 M20,0 L0,0 L0,623 L20,623 L20,0 Z"/>
    <g transform="translate(350)">
      <rect width="19" height="622" x=".5" y=".5" fill="#634C02"/>
      <path fill="#1E1E1E" d="M19,1 L19,622 L1,622 L1,1 L19,1 M20,0 L0,0 L0,623 L20,623 L20,0 Z"/>
    </g>
    <g transform="translate(550)">
      <rect width="19" height="622" x=".5" y=".5" fill="#634C02"/>
      <path fill="#1E1E1E" d="M19,1 L19,622 L1,622 L1,1 L19,1 M20,0 L0,0 L0,623 L20,623 L20,0 Z"/>
    </g>
  </g>
</svg>
